<svg width="18" height="12" viewBox="0 0 18 12" fill="none" xmlns="http://www.w3.org/2000/svg">
<path d="M3.09427 2.58596H13.6212C14.3696 2.58596 15.6905 3.22484 16.2588 3.69166C19.6212 6.45125 17.8045 11.6316 13.455 11.9998L3.41543 11.9944C2.45196 11.789 2.47291 10.4633 3.45313 10.3085H13.1171C15.7408 10.2205 17.1888 7.29286 15.4559 5.34155C14.9728 4.79736 14.0023 4.27452 13.2427 4.27452H3.09427C3.56902 4.90673 5.0212 5.60963 4.3356 6.52461C4.01585 6.95275 3.36237 6.97809 2.96721 6.62864C2.16432 5.74301 1.03749 4.94541 0.266718 4.05445C-0.0767772 3.65698 -0.0935331 3.23418 0.245773 2.82604C0.990014 1.93374 2.18247 1.12147 2.96721 0.231843C3.6528 -0.294999 4.58415 0.125141 4.48641 0.997431C4.42636 1.52961 3.41263 2.14181 3.09427 2.58596Z" fill="black"/>
</svg>
