<svg width="225" height="29" viewBox="0 0 225 29" fill="none" xmlns="http://www.w3.org/2000/svg">
<g clip-path="url(#clip0_1063_96)">
<path d="M58.7517 7.69364C58.3378 9.92351 56.6598 11.4587 54.0757 11.4587C50.882 11.4587 49.0474 9.25805 49.0474 5.67975C49.0474 2.10145 50.9938 0 54.1372 0C56.6598 0 58.3322 1.5002 58.7517 3.7651L56.7269 4.08031C56.4081 2.42834 55.3062 1.76288 54.0757 1.76288C52.4984 1.76288 51.2511 3.07629 51.2511 5.67391C51.2511 8.27154 52.4984 9.69002 54.0421 9.69002C55.3174 9.69002 56.4025 9.02456 56.7213 7.37258L58.7461 7.6878L58.7517 7.69364Z" fill="white"/>
<path d="M59.3613 7.17997C59.3613 4.68158 60.9107 2.9187 63.3214 2.9187C65.8775 2.9187 67.3429 4.85087 67.2143 7.83376H61.3917C61.442 9.03042 62.2195 9.83014 63.3381 9.83014C64.3617 9.83014 64.949 9.29894 65.1727 8.63348L67.0856 8.902C66.7165 10.0344 65.5866 11.4646 63.3661 11.4646C60.7149 11.4646 59.3613 9.56745 59.3613 7.18581V7.17997ZM61.3861 6.34523H65.1671C65.1168 4.9968 64.1603 4.4656 63.2654 4.4656C62.3705 4.4656 61.4476 4.96761 61.3805 6.34523H61.3861Z" fill="white"/>
<path d="M70.5982 4.03364C71.0624 3.28645 71.9406 2.9187 72.9138 2.9187C73.887 2.9187 74.6365 3.21641 75.1176 3.87019C75.4867 4.3722 75.6769 5.08436 75.6769 6.18762V11.2661H73.6353V6.65461C73.6353 5.95413 73.5738 5.46963 73.3501 5.1369C73.1431 4.83919 72.7908 4.63488 72.2482 4.63488C70.9058 4.63488 70.6038 5.78484 70.6038 7.09825V11.2603H68.5623V3.09966H70.6038V4.03364H70.5982Z" fill="white"/>
<path d="M77.6904 0.665405H79.7319V3.09958H81.3931V4.68151H79.7319V8.59838C79.7319 9.44479 80.0172 9.61408 80.7387 9.61408H81.3595V11.2602H79.8605C78.0427 11.2602 77.6904 10.6765 77.6904 9.01283V4.68151H76.5549V3.09958H77.6904V0.665405Z" fill="white"/>
<path d="M87.266 5.16603C86.9808 5.13101 86.7235 5.1135 86.4214 5.1135C85.4146 5.1135 84.7434 5.49876 84.7434 7.06318V11.2602H82.7019V3.09961H84.7155V4.38383C85.1797 3.53741 85.9124 3.11712 86.8241 3.11712C86.9696 3.11712 87.143 3.13463 87.2716 3.15215V5.16603H87.266Z" fill="white"/>
<path d="M91.528 2.91284C93.6031 2.91284 95.4545 4.26127 95.4545 7.19163C95.4545 10.122 93.6031 11.4529 91.528 11.4529C89.4529 11.4529 87.6016 10.122 87.6016 7.19163C87.6016 4.26127 89.4529 2.91284 91.528 2.91284ZM91.528 9.82428C92.6635 9.82428 93.3794 8.86111 93.3794 7.19163C93.3794 5.52214 92.6635 4.54147 91.528 4.54147C90.3926 4.54147 89.6767 5.50463 89.6767 7.19163C89.6767 8.87862 90.3926 9.82428 91.528 9.82428Z" fill="white"/>
<path d="M102.29 11.2603H100.17V0.198486H102.29V11.2603Z" fill="white"/>
<path d="M106.216 4.03364C106.68 3.28645 107.558 2.9187 108.532 2.9187C109.505 2.9187 110.254 3.21641 110.735 3.87019C111.105 4.3722 111.295 5.08436 111.295 6.18762V11.2661H109.253V6.65461C109.253 5.95413 109.192 5.46963 108.968 5.1369C108.761 4.83919 108.409 4.63488 107.866 4.63488C106.524 4.63488 106.222 5.78484 106.222 7.09825V11.2603H104.18V3.09966H106.222V4.03364H106.216Z" fill="white"/>
<path d="M113.303 0.665405H115.344V3.09958H117.005V4.68151H115.344V8.59838C115.344 9.44479 115.629 9.61408 116.351 9.61408H116.972V11.2602H115.473C113.655 11.2602 113.303 10.6765 113.303 9.01283V4.68151H112.167V3.09958H113.303V0.665405Z" fill="white"/>
<path d="M117.789 7.17997C117.789 4.68158 119.338 2.9187 121.749 2.9187C124.305 2.9187 125.77 4.85087 125.642 7.83376H119.819C119.869 9.03042 120.647 9.83014 121.765 9.83014C122.789 9.83014 123.376 9.29894 123.6 8.63348L125.513 8.902C125.144 10.0344 124.014 11.4646 121.793 11.4646C119.142 11.4646 117.789 9.56745 117.789 7.18581V7.17997ZM119.813 6.34523H123.594C123.544 4.9968 122.588 4.4656 121.693 4.4656C120.798 4.4656 119.875 4.96761 119.808 6.34523H119.813Z" fill="white"/>
<path d="M131.548 5.16603C131.263 5.13101 131.005 5.1135 130.703 5.1135C129.697 5.1135 129.025 5.49876 129.025 7.06318V11.2602H126.984V3.09961H128.997V4.38383C129.462 3.53741 130.194 3.11712 131.106 3.11712C131.252 3.11712 131.425 3.13463 131.554 3.15215V5.16603H131.548Z" fill="white"/>
<path d="M134.647 4.03364C135.111 3.28645 135.989 2.9187 136.962 2.9187C137.935 2.9187 138.685 3.21641 139.166 3.87019C139.535 4.3722 139.725 5.08436 139.725 6.18762V11.2661H137.684V6.65461C137.684 5.95413 137.622 5.46963 137.398 5.1369C137.191 4.83919 136.839 4.63488 136.297 4.63488C134.954 4.63488 134.652 5.78484 134.652 7.09825V11.2603H132.611V3.09966H134.652V4.03364H134.647Z" fill="white"/>
<path d="M141.252 5.58046C141.381 4.03356 142.527 2.86609 144.781 2.86609C147.036 2.86609 148.165 3.82925 148.132 6.01243C148.115 6.91138 148.081 7.79282 148.081 8.56335C148.081 9.44479 148.132 10.3437 148.244 11.2602H146.359L146.308 10.3788C145.799 11.126 145.05 11.4645 143.836 11.4645C142.035 11.4645 140.978 10.1803 140.978 8.79685C140.978 8.04966 141.263 7.44842 141.711 7.08066C142.382 6.53195 143.355 6.29846 144.664 6.14668L146.101 5.98324V5.69721C146.101 4.73404 145.559 4.41299 144.681 4.41299C143.803 4.41299 143.199 4.79825 143.131 5.64467L141.247 5.58046H141.252ZM146.152 7.44258L144.765 7.60602C143.534 7.7578 143.059 8.13722 143.059 8.7735C143.059 9.37474 143.506 9.87092 144.306 9.87092C145.296 9.87092 146.157 9.25216 146.157 7.93875V7.43674L146.152 7.44258Z" fill="white"/>
<path d="M156.88 5.7615L154.95 6.0592C154.805 5.24197 154.262 4.54149 153.211 4.54149C152.159 4.54149 151.359 5.42293 151.359 7.17414C151.359 8.92534 152.142 9.8243 153.211 9.8243C153.943 9.8243 154.76 9.52659 155.001 8.25988L156.947 8.54592C156.455 10.5948 154.872 11.4588 153.183 11.4588C150.71 11.4588 149.29 9.70755 149.29 7.19749C149.29 4.68742 150.744 2.9187 153.233 2.9187C154.894 2.9187 156.444 3.77096 156.885 5.76733L156.88 5.7615Z" fill="white"/>
<path d="M160.236 0.198486V2.18319H158.194V0.198486H160.236ZM160.236 3.09965V11.2603H158.194V3.09965H160.236Z" fill="white"/>
<path d="M165.488 2.91284C167.563 2.91284 169.414 4.26127 169.414 7.19163C169.414 10.122 167.563 11.4529 165.488 11.4529C163.413 11.4529 161.561 10.122 161.561 7.19163C161.561 4.26127 163.413 2.91284 165.488 2.91284ZM165.488 9.82428C166.623 9.82428 167.339 8.86111 167.339 7.19163C167.339 5.52214 166.623 4.54147 165.488 4.54147C164.352 4.54147 163.636 5.50463 163.636 7.19163C163.636 8.87862 164.352 9.82428 165.488 9.82428Z" fill="white"/>
<path d="M172.781 4.03364C173.246 3.28645 174.124 2.9187 175.097 2.9187C176.07 2.9187 176.82 3.21641 177.301 3.87019C177.67 4.3722 177.86 5.08436 177.86 6.18762V11.2661H175.818V6.65461C175.818 5.95413 175.757 5.46963 175.533 5.1369C175.326 4.83919 174.974 4.63488 174.431 4.63488C173.089 4.63488 172.787 5.78484 172.787 7.09825V11.2603H170.745V3.09966H172.787V4.03364H172.781Z" fill="white"/>
<path d="M179.393 5.58046C179.521 4.03356 180.668 2.86609 182.922 2.86609C185.176 2.86609 186.306 3.82925 186.272 6.01243C186.256 6.91138 186.222 7.79282 186.222 8.56335C186.222 9.44479 186.272 10.3437 186.384 11.2602H184.499L184.449 10.3788C183.94 11.126 183.191 11.4645 181.977 11.4645C180.176 11.4645 179.119 10.1803 179.119 8.79685C179.119 8.04966 179.404 7.44842 179.851 7.08066C180.523 6.53195 181.496 6.29846 182.805 6.14668L184.242 5.98324V5.69721C184.242 4.73404 183.7 4.41299 182.821 4.41299C181.943 4.41299 181.339 4.79825 181.272 5.64467L179.387 5.58046H179.393ZM184.292 7.44258L182.905 7.60602C181.675 7.7578 181.199 8.13722 181.199 8.7735C181.199 9.37474 181.647 9.87092 182.447 9.87092C183.437 9.87092 184.298 9.25216 184.298 7.93875V7.43674L184.292 7.44258Z" fill="white"/>
<path d="M189.992 11.2603H187.95V0.198486H189.992V11.2603Z" fill="white"/>
<path d="M56.4528 26.0697H54.4896L54.4728 25.2057C53.9638 25.9529 53.164 26.274 52.269 26.274C50.289 26.274 48.8516 24.6745 48.8516 21.9952C48.8516 19.3158 50.3841 17.7339 52.3921 17.7339C53.3318 17.7339 53.9694 18.1484 54.4057 18.6679V15.0195H56.4472V26.0813L56.4528 26.0697ZM54.4896 21.9893C54.4896 20.3899 53.8016 19.3567 52.6718 19.3567C51.5419 19.3567 50.9323 20.4541 50.9323 22.0069C50.9323 23.5596 51.5531 24.6395 52.6718 24.6395C53.7904 24.6395 54.4896 23.6238 54.4896 21.9893Z" fill="white"/>
<path d="M57.7783 21.9893C57.7783 19.4909 59.3276 17.728 61.7383 17.728C64.2945 17.728 65.7599 19.6602 65.6312 22.6431H59.8087C59.859 23.8397 60.6365 24.6395 61.7551 24.6395C62.7787 24.6395 63.366 24.1083 63.5897 23.4428L65.5026 23.7113C65.1335 24.8438 64.0036 26.2739 61.7831 26.2739C59.1319 26.2739 57.7783 24.3768 57.7783 21.9951V21.9893ZM59.8087 21.1546H63.5897C63.5394 19.8061 62.5829 19.2749 61.688 19.2749C60.7931 19.2749 59.8702 19.7769 59.8031 21.1546H59.8087Z" fill="white"/>
<path d="M79.6984 22.503C79.2845 24.7328 77.6066 26.2681 75.0225 26.2681C71.8287 26.2681 69.9941 24.0674 69.9941 20.4891C69.9941 16.9108 71.9406 14.8093 75.084 14.8093C77.6066 14.8093 79.279 16.3095 79.6984 18.5744L77.6737 18.8896C77.3549 17.2377 76.253 16.5722 75.0225 16.5722C73.4452 16.5722 72.1979 17.8856 72.1979 20.4832C72.1979 23.0809 73.4452 24.4993 74.9889 24.4993C76.2642 24.4993 77.3493 23.8339 77.6681 22.1819L79.6928 22.4971L79.6984 22.503Z" fill="white"/>
<path d="M84.2346 17.7222C86.3097 17.7222 88.161 19.0706 88.161 22.001C88.161 24.9313 86.3097 26.2622 84.2346 26.2622C82.1595 26.2622 80.3081 24.9313 80.3081 22.001C80.3081 19.0706 82.1595 17.7222 84.2346 17.7222ZM84.2346 24.6336C85.37 24.6336 86.0859 23.6704 86.0859 22.001C86.0859 20.3315 85.37 19.3508 84.2346 19.3508C83.0991 19.3508 82.3832 20.314 82.3832 22.001C82.3832 23.6879 83.0991 24.6336 84.2346 24.6336Z" fill="white"/>
<path d="M91.5281 18.843C91.9924 18.0958 92.8705 17.728 93.8437 17.728C94.817 17.728 95.5665 18.0257 96.0475 18.6795C96.4166 19.1815 96.6068 19.8937 96.6068 20.9969V26.0754H94.5653V21.4639C94.5653 20.7635 94.5037 20.279 94.28 19.9462C94.0731 19.6485 93.7207 19.4442 93.1781 19.4442C91.8358 19.4442 91.5337 20.5942 91.5337 21.9076V26.0696H89.4922V17.909H91.5337V18.843H91.5281Z" fill="white"/>
<path d="M103.358 24.9371C102.849 25.6376 102.111 25.9353 101.221 25.9353C99.2412 25.9353 97.8037 24.3359 97.8037 21.82C97.8037 19.3041 99.3363 17.7222 101.344 17.7222C102.284 17.7222 102.955 18.1366 103.386 18.6561L103.419 17.909H105.399V25.2524C105.399 26.6533 105.047 27.5873 104.393 28.1652C103.755 28.7665 102.815 28.9999 101.618 28.9999C99.9124 28.9999 98.3966 28.352 98.1225 26.3848L100.069 26.3031C100.214 27.1028 100.757 27.3713 101.68 27.3713C102.161 27.3713 102.575 27.3071 102.877 27.0561C103.179 26.8051 103.358 26.3731 103.358 25.6551V24.9371ZM103.436 21.82C103.436 20.3898 102.748 19.3566 101.618 19.3566C100.488 19.3566 99.8788 20.4541 99.8788 21.8375C99.8788 23.3844 100.5 24.3009 101.618 24.3009C102.737 24.3009 103.436 23.4486 103.436 21.82Z" fill="white"/>
<path d="M111.815 19.9755C111.53 19.9405 111.272 19.9229 110.97 19.9229C109.963 19.9229 109.292 20.3082 109.292 21.8726V26.0697H107.251V17.9091H109.264V19.1933C109.729 18.3469 110.461 17.9266 111.373 17.9266C111.518 17.9266 111.692 17.9441 111.82 17.9616V19.9755H111.815Z" fill="white"/>
<path d="M112.156 21.9893C112.156 19.4909 113.705 17.728 116.116 17.728C118.672 17.728 120.138 19.6602 120.009 22.6431H114.186C114.237 23.8397 115.014 24.6395 116.133 24.6395C117.156 24.6395 117.744 24.1083 117.967 23.4428L119.88 23.7113C119.511 24.8438 118.381 26.2739 116.161 26.2739C113.51 26.2739 112.156 24.3768 112.156 21.9951V21.9893ZM114.181 21.1546H117.962C117.911 19.8061 116.955 19.2749 116.06 19.2749C115.165 19.2749 114.242 19.7769 114.175 21.1546H114.181Z" fill="white"/>
<path d="M125.977 20.4892C125.832 19.7887 125.16 19.2575 124.159 19.2575C123.41 19.2575 122.834 19.5435 122.834 20.0047C122.834 20.4658 123.326 20.7402 123.997 20.8861L124.926 21.1021C126.604 21.4874 127.924 21.9018 127.924 23.548C127.924 25.2992 126.279 26.2623 124.411 26.2623C122.386 26.2623 120.949 25.1474 120.759 23.5304L122.688 23.2327C122.783 24.0325 123.404 24.7154 124.506 24.7154C125.401 24.7154 125.943 24.4294 125.943 23.8165C125.943 23.2035 125.339 23.0518 124.584 22.8825L123.55 22.649C122 22.2988 120.949 21.6683 120.949 20.1506C120.949 18.6329 122.431 17.7164 124.282 17.7164C125.848 17.7164 127.521 18.4986 127.823 20.2148L125.971 20.4833L125.977 20.4892Z" fill="white"/>
<path d="M132.717 17.7222C134.792 17.7222 136.643 19.0706 136.643 22.001C136.643 24.9313 134.792 26.2622 132.717 26.2622C130.642 26.2622 128.791 24.9313 128.791 22.001C128.791 19.0706 130.642 17.7222 132.717 17.7222ZM132.717 24.6336C133.852 24.6336 134.568 23.6704 134.568 22.001C134.568 20.3315 133.852 19.3508 132.717 19.3508C131.582 19.3508 130.866 20.314 130.866 22.001C130.866 23.6879 131.582 24.6336 132.717 24.6336Z" fill="white"/>
<path d="M142.628 20.4892C142.483 19.7887 141.812 19.2575 140.81 19.2575C140.061 19.2575 139.485 19.5435 139.485 20.0047C139.485 20.4658 139.977 20.7402 140.648 20.8861L141.577 21.1021C143.255 21.4874 144.575 21.9018 144.575 23.548C144.575 25.2992 142.93 26.2623 141.062 26.2623C139.037 26.2623 137.6 25.1474 137.41 23.5304L139.339 23.2327C139.434 24.0325 140.055 24.7154 141.157 24.7154C142.052 24.7154 142.595 24.4294 142.595 23.8165C142.595 23.2035 141.991 23.0518 141.235 22.8825L140.201 22.649C138.651 22.2988 137.6 21.6683 137.6 20.1506C137.6 18.6329 139.082 17.7164 140.933 17.7164C142.5 17.7164 144.172 18.4986 144.474 20.2148L142.623 20.4833L142.628 20.4892Z" fill="white"/>
<path d="M156.309 26.0697H154.346L154.329 25.2057C153.82 25.9529 153.02 26.274 152.125 26.274C150.145 26.274 148.708 24.6745 148.708 21.9952C148.708 19.3158 150.241 17.7339 152.249 17.7339C153.188 17.7339 153.826 18.1484 154.262 18.6679V15.0195H156.304V26.0813L156.309 26.0697ZM154.346 21.9893C154.346 20.3899 153.658 19.3567 152.528 19.3567C151.398 19.3567 150.789 20.4541 150.789 22.0069C150.789 23.5596 151.41 24.6395 152.528 24.6395C153.647 24.6395 154.346 23.6238 154.346 21.9893Z" fill="white"/>
<path d="M157.635 21.9893C157.635 19.4909 159.184 17.728 161.595 17.728C164.151 17.728 165.616 19.6602 165.488 22.6431H159.665C159.715 23.8397 160.493 24.6395 161.612 24.6395C162.635 24.6395 163.222 24.1083 163.446 23.4428L165.359 23.7113C164.99 24.8438 163.86 26.2739 161.64 26.2739C158.988 26.2739 157.635 24.3768 157.635 21.9951V21.9893ZM159.66 21.1546H163.441C163.39 19.8061 162.434 19.2749 161.539 19.2749C160.644 19.2749 159.721 19.7769 159.654 21.1546H159.66Z" fill="white"/>
<path d="M171.568 15.0079L174.073 19.707L176.63 15.0079H179.057L175.097 21.9018V26.0639H172.977V21.8668L169.101 15.0021H171.573L171.568 15.0079Z" fill="white"/>
<path d="M183.604 25.1532C183.14 25.8712 182.296 26.2682 181.322 26.2682C180.349 26.2682 179.661 25.9821 179.186 25.3692C178.789 24.8672 178.593 24.12 178.593 23.0051V17.9091H180.634V22.6081C180.634 23.2386 180.668 23.7231 180.908 24.0558C181.115 24.3535 181.434 24.552 181.977 24.552C183.336 24.552 183.604 23.3378 183.604 22.0069V17.9091H185.646V26.0697H183.604V25.1532Z" fill="white"/>
<path d="M194.573 20.5708L192.643 20.8685C192.498 20.0513 191.955 19.3508 190.904 19.3508C189.852 19.3508 189.052 20.2323 189.052 21.9835C189.052 23.7347 189.835 24.6336 190.904 24.6336C191.636 24.6336 192.453 24.3359 192.693 23.0692L194.64 23.3552C194.148 25.4042 192.565 26.2681 190.876 26.2681C188.403 26.2681 186.983 24.5169 186.983 22.0068C186.983 19.4967 188.437 17.728 190.926 17.728C192.587 17.728 194.136 18.5803 194.578 20.5767L194.573 20.5708Z" fill="white"/>
<path d="M195.658 20.3899C195.786 18.843 196.933 17.6755 199.187 17.6755C201.441 17.6755 202.571 18.6387 202.538 20.8219C202.521 21.7208 202.487 22.6023 202.487 23.3728C202.487 24.2542 202.538 25.1532 202.649 26.0697H200.764L200.714 25.1882C200.205 25.9354 199.456 26.274 198.242 26.274C196.441 26.274 195.384 24.9897 195.384 23.6063C195.384 22.8591 195.669 22.2579 196.117 21.8901C196.788 21.3414 197.761 21.1079 199.07 20.9561L200.507 20.7927V20.5067C200.507 19.5435 199.965 19.2224 199.087 19.2224C198.208 19.2224 197.604 19.6077 197.537 20.4541L195.652 20.3899H195.658ZM200.558 22.252L199.17 22.4155C197.94 22.5672 197.464 22.9467 197.464 23.5829C197.464 24.1842 197.912 24.6804 198.712 24.6804C199.702 24.6804 200.563 24.0616 200.563 22.7482V22.2462L200.558 22.252Z" fill="white"/>
<path d="M204.501 15.4749H206.542V17.909H208.203V19.491H206.542V23.4078C206.542 24.2542 206.827 24.4235 207.549 24.4235H208.17V26.0697H206.671C204.853 26.0697 204.501 25.4859 204.501 23.8223V19.491H203.365V17.909H204.501V15.4749Z" fill="white"/>
<path d="M209.322 20.3899C209.451 18.843 210.597 17.6755 212.852 17.6755C215.106 17.6755 216.235 18.6386 216.202 20.8218C216.185 21.7208 216.152 22.6022 216.152 23.3727C216.152 24.2542 216.202 25.1531 216.314 26.0696H214.429L214.378 25.1882C213.869 25.9353 213.12 26.2739 211.906 26.2739C210.105 26.2739 209.048 24.9897 209.048 23.6062C209.048 22.8591 209.333 22.2578 209.781 21.8901C210.452 21.3413 211.425 21.1079 212.734 20.9561L214.172 20.7926V20.5066C214.172 19.5434 213.629 19.2224 212.751 19.2224C211.873 19.2224 211.269 19.6077 211.202 20.4541L209.317 20.3899H209.322ZM214.222 22.754V22.252L212.835 22.4154C211.604 22.5672 211.129 22.9466 211.129 23.5829C211.129 24.1841 211.576 24.6803 212.376 24.6803C213.366 24.6803 214.227 24.0616 214.227 22.7482L214.222 22.754ZM215.408 15.0078H213.075L211.671 16.975H213.187L215.408 15.0078Z" fill="white"/>
<path d="M219.921 18.843C220.386 18.0958 221.264 17.728 222.237 17.728C223.21 17.728 223.96 18.0257 224.441 18.6795C224.81 19.1815 225 19.8937 225 20.9969V26.0754H222.959V21.4639C222.959 20.7635 222.897 20.279 222.673 19.9462C222.466 19.6485 222.114 19.4442 221.571 19.4442C220.229 19.4442 219.927 20.5942 219.927 21.9076V26.0696H217.885V17.909H219.927V18.843H219.921Z" fill="white"/>
<path d="M33.1624 3.63667C29.5156 1.29006 24.6886 0 19.5764 0C14.4642 0 9.64278 1.29006 5.99038 3.63667C2.12544 6.11755 0 9.49155 0 13.1341C0 16.7766 2.12544 20.1506 5.99038 22.6314C9.64278 24.9781 14.4642 26.2681 19.5764 26.2681C24.6886 26.2681 29.51 24.9781 33.1624 22.6314C37.0274 20.1506 39.1528 16.7766 39.1528 13.1341C39.1528 9.49155 37.0274 6.11755 33.1624 3.63667ZM10.0567 5.52214C9.0443 7.89211 8.48497 10.5189 8.48497 13.28C8.48497 16.0411 8.99396 18.4052 9.91125 20.6818C10.0455 21.0087 9.72108 21.3414 9.40786 21.1955C5.41427 19.31 2.79663 16.368 2.79663 13.1341C2.79663 9.90016 5.48699 6.88808 9.55888 5.00262C9.8721 4.85668 10.1965 5.19525 10.0567 5.52214ZM18.1781 22.8883C18.1781 23.1159 17.9935 23.3027 17.7754 23.2852C16.612 23.2035 15.4765 23.0517 14.3859 22.8241C14.2908 22.8066 14.2013 22.7482 14.1454 22.6606C12.3443 20.0046 11.2816 16.7707 11.2816 13.28C11.2816 9.78925 12.445 6.26349 14.3915 3.54328C14.4474 3.46155 14.5369 3.40902 14.632 3.38567C15.6443 3.1872 16.6959 3.05294 17.7754 2.97705C17.9935 2.95954 18.1781 3.14634 18.1781 3.37399V22.8825V22.8883ZM27.9663 21.931C25.9807 22.649 23.7434 23.1218 21.3774 23.2852C21.1593 23.3027 20.9747 23.1159 20.9747 22.8883V3.37983C20.9747 3.15217 21.1593 2.96538 21.3774 2.98289C23.7434 3.14634 25.9751 3.61916 27.9663 4.33716C28.2012 4.42472 28.2851 4.72242 28.1453 4.93841C26.6183 7.27335 25.7178 10.0986 25.7178 13.1341C25.7178 16.1695 26.6127 18.9948 28.1453 21.3297C28.2851 21.5457 28.2012 21.8434 27.9663 21.931ZM31.339 20.3374C31.1768 20.4366 30.9643 20.3957 30.8468 20.2381C29.3926 18.2709 28.52 15.8076 28.52 13.1282C28.52 10.4489 29.387 7.99135 30.8468 6.01832C30.9643 5.86071 31.1768 5.81985 31.339 5.91908C34.4209 7.7812 36.3618 10.3438 36.3618 13.1282C36.3618 15.9126 34.4209 18.4694 31.339 20.3315V20.3374Z" fill="white"/>
</g>
<defs>
<clipPath id="clip0_1063_96">
<rect width="225" height="29" fill="white"/>
</clipPath>
</defs>
</svg>
