<svg width="23" height="22" viewBox="0 0 23 22" fill="none" xmlns="http://www.w3.org/2000/svg">
<g clip-path="url(#clip0_304_4531)">
<path d="M11.2307 0.015401C11.5451 -0.0204442 11.799 0.0102803 12.1005 0.0922123C15.4369 1.72573 18.8505 3.2786 22.0696 5.11951C23.0812 6.4125 22.7101 7.65813 21.3363 8.43776C18.3866 10.1122 15.0258 11.4654 11.9948 13.0106L11.0657 13.0324C7.75773 11.523 4.53222 9.8178 1.26418 8.21629C-0.0141735 7.30095 0.0657232 5.58038 1.42139 4.76874C4.27835 3.05841 7.76418 1.84095 10.6817 0.169024C10.8479 0.0922123 11.0503 0.0346039 11.232 0.0141208L11.2307 0.015401ZM11.3918 1.73469L2.27062 6.26016C2.10696 6.3613 2.02964 6.56485 2.18041 6.71079L11.2577 11.2772H11.7165L20.7229 6.80296C20.991 6.65318 20.9188 6.37026 20.6675 6.24096L11.6624 1.7667C11.5747 1.71805 11.4884 1.71549 11.393 1.73469H11.3918Z" fill="black"/>
<path d="M0.647024 14.6736C0.766869 14.6492 0.889292 14.6544 1.01043 14.6659L11.4859 19.7841L11.8584 19.6663L21.8764 14.6877C22.7347 14.4713 23.3352 15.402 22.7914 16.0818C19.3609 17.9406 15.7926 19.5793 12.3107 21.3549C11.8713 21.5392 11.3648 21.5648 10.906 21.4368L0.427952 16.27C-0.218956 15.8936 -0.109419 14.8298 0.648313 14.6736H0.647024Z" fill="black"/>
<path d="M0.811951 10.4156C0.987209 10.4066 1.22303 10.5078 1.38798 10.5718L11.4924 15.576L21.8261 10.4847C22.8068 10.1621 23.4692 11.4359 22.5684 12.0299L12.2578 17.1494C11.6857 17.3632 11.2501 17.3465 10.6818 17.1327L0.373807 12.0107C-0.291142 11.5575 -0.020523 10.4604 0.811951 10.4156Z" fill="black"/>
</g>
<defs>
<clipPath id="clip0_304_4531">
<rect width="23" height="21.5161" fill="white"/>
</clipPath>
</defs>
</svg>
