<svg width="146" height="28" viewBox="0 0 146 28" fill="none" xmlns="http://www.w3.org/2000/svg">
<mask id="mask0_17_38" style="mask-type:luminance" maskUnits="userSpaceOnUse" x="0" y="0" width="11" height="15">
<path d="M0.00704193 0H10.9077V14.2374H0.00704193V0Z" fill="white"/>
</mask>
<g mask="url(#mask0_17_38)">
<path fill-rule="evenodd" clip-rule="evenodd" d="M5.67907 14.0191L5.74841 14.1098C5.73685 14.0943 5.71723 14.0687 5.67907 14.0191ZM5.16602 14.1098L5.23563 14.0191C5.19747 14.0687 5.17785 14.0943 5.16602 14.1098ZM5.45735 0C2.45968 0 0.00704193 2.4204 0.00704193 5.43569C0.00704193 7.76452 1.33979 9.95601 2.59836 11.5121C3.23235 12.3053 3.87171 12.9561 4.3474 13.4087C4.58525 13.6374 4.78332 13.8155 4.92226 13.9374C4.99644 13.9986 5.051 14.0442 5.09077 14.0748C5.10555 14.0952 5.12033 14.1051 5.13512 14.1156L5.14506 14.1255H5.15017V14.1308C5.32835 14.2731 5.58608 14.2731 5.76453 14.1308V14.1255H5.76937L5.77932 14.1156C5.79437 14.1051 5.80915 14.0952 5.82393 14.0748C5.8637 14.0442 5.91826 13.9986 5.99244 13.9374C6.13111 13.8155 6.32918 13.6374 6.5673 13.4087C7.04272 12.9561 7.68209 12.3053 8.31634 11.5121C9.57491 9.95601 10.9077 7.76452 10.9077 5.43569C10.9077 2.4204 8.45502 0 5.45735 0Z" fill="#FFDD17"/>
</g>
<path fill-rule="evenodd" clip-rule="evenodd" d="M43.3712 11.1532C44.4268 11.7688 45.2673 12.606 45.8927 13.6638C46.5177 14.7219 46.8301 15.8774 46.8301 17.1295V24.6768C46.8301 25.2171 46.6411 25.6758 46.2642 26.053C45.887 26.4315 45.429 26.6206 44.8903 26.6206C44.3514 26.6206 43.8934 26.4315 43.5167 26.053C43.1393 25.6758 42.9508 25.2171 42.9508 24.6768V18.1014C42.9508 17.3458 42.7675 16.6437 42.4015 15.9956C42.0347 15.3484 41.5447 14.8352 40.9304 14.4572C40.3164 14.0798 39.6426 13.8907 38.9103 13.8907C38.1772 13.8907 37.5042 14.0798 36.89 14.4572C36.2757 14.8352 35.7854 15.3484 35.4191 15.9956C35.0523 16.6437 34.8698 17.3458 34.8698 18.1014V24.6768C34.8698 25.2171 34.6806 25.6758 34.3039 26.053C33.9264 26.4315 33.4684 26.6206 32.93 26.6206C32.3911 26.6206 31.9331 26.4315 31.5562 26.053C31.179 25.6758 30.9905 25.2171 30.9905 24.6768V12.4976C30.9905 11.9579 31.179 11.4992 31.5562 11.1207C31.9331 10.7432 32.3911 10.5541 32.93 10.5541C33.4474 10.5541 33.8887 10.7271 34.2556 11.0725C34.6216 11.4179 34.8261 11.8391 34.8698 12.3353C35.5161 11.6667 36.2702 11.1483 37.1325 10.7807C37.9942 10.414 38.9103 10.2303 39.8802 10.2303C41.1514 10.2303 42.3152 10.5377 43.3712 11.1532Z" fill="black"/>
<path fill-rule="evenodd" clip-rule="evenodd" d="M59.9025 22.919C60.6237 22.4893 61.1898 21.905 61.6006 21.1658C62.0114 20.4269 62.2169 19.627 62.2169 18.7668C62.2169 17.9065 62.0114 17.1073 61.6006 16.3678C61.1898 15.6294 60.6237 15.0446 59.9025 14.614C59.1807 14.1843 58.3982 13.9693 57.5546 13.9693C56.7105 13.9693 55.9279 14.1843 55.207 14.614C54.4853 15.0446 53.9191 15.6294 53.5083 16.3678C53.0972 17.1073 52.8924 17.9065 52.8924 18.7668C52.8924 19.627 53.0972 20.4269 53.5083 21.1658C53.9191 21.905 54.4853 22.4893 55.207 22.919C55.9279 23.3495 56.7105 23.5645 57.5546 23.5645C58.3982 23.5645 59.1807 23.3495 59.9025 22.919ZM65.5301 11.1401C65.9187 11.5264 66.1132 11.9953 66.1132 12.5463V24.9873C66.1132 25.5391 65.9187 26.0077 65.5301 26.3932C65.1418 26.7799 64.6697 26.9728 64.1151 26.9728C63.5599 26.9728 63.0877 26.7799 62.6997 26.3932C62.3111 26.0077 62.117 25.5391 62.117 24.9873V24.954C61.4062 25.7041 60.5851 26.2836 59.6526 26.6913C58.7201 27.0989 57.7431 27.3035 56.7223 27.3035C55.301 27.3035 53.9912 26.9227 52.7925 26.1617C51.5938 25.4008 50.6447 24.3644 49.9452 23.0515C49.2457 21.7398 48.8962 20.3111 48.8962 18.7668C48.8962 17.223 49.2457 15.7947 49.9452 14.4824C50.6447 13.17 51.5938 12.1326 52.7925 11.3721C53.9912 10.6111 55.301 10.2303 56.7223 10.2303C57.7431 10.2303 58.7201 10.4347 59.6526 10.8426C60.5851 11.2508 61.4062 11.8301 62.117 12.5796V12.5463C62.117 11.9953 62.3111 11.5264 62.6997 11.1401C63.0877 10.7543 63.5599 10.5611 64.1151 10.5611C64.6697 10.5611 65.1418 10.7543 65.5301 11.1401Z" fill="black"/>
<path fill-rule="evenodd" clip-rule="evenodd" d="M78.3966 22.9699C79.1178 22.5452 79.684 21.9677 80.0951 21.2371C80.5056 20.5067 80.7113 19.7161 80.7113 18.8659C80.7113 18.0156 80.5056 17.2256 80.0951 16.4947C79.684 15.7649 79.1178 15.1868 78.3966 14.7612C77.6752 14.3365 76.8924 14.124 76.0488 14.124C75.2049 14.124 74.4224 14.3365 73.7012 14.7612C72.9795 15.1868 72.4133 15.7649 72.0025 16.4947C71.5917 17.2256 71.3866 18.0156 71.3866 18.8659C71.3866 19.7161 71.5917 20.5067 72.0025 21.2371C72.4133 21.9677 72.9795 22.5452 73.7012 22.9699C74.4224 23.3955 75.2049 23.608 76.0488 23.608C76.8924 23.608 77.6752 23.3955 78.3966 22.9699ZM80.8109 11.5569C82.0099 12.3085 82.9593 13.334 83.6582 14.6311C84.3577 15.9282 84.7075 17.34 84.7075 18.8659C84.7075 20.3923 84.3577 21.8044 83.6582 23.1009C82.9593 24.3986 82.0099 25.4229 80.8109 26.1751C79.6119 26.9273 78.3021 27.3036 76.8814 27.3036C75.86 27.3036 74.8833 27.1013 73.9508 26.6985C73.0186 26.2956 72.1967 25.7227 71.4867 24.9813V25.0142C71.4867 25.5597 71.292 26.0228 70.9037 26.4039C70.5148 26.7861 70.0432 26.9767 69.4886 26.9767C68.9335 26.9767 68.4613 26.7861 68.0733 26.4039C67.6847 26.0228 67.4905 25.5597 67.4905 25.0142V6.04633C67.4905 5.50141 67.6847 5.03772 68.0733 4.65611C68.4613 4.27505 68.9335 4.08411 69.4886 4.08411C70.0432 4.08411 70.5148 4.27505 70.9037 4.65611C71.292 5.03772 71.4867 5.50141 71.4867 6.04633V12.7504C72.1967 12.0095 73.0186 11.437 73.9508 11.0335C74.8833 10.6304 75.86 10.4284 76.8814 10.4284C78.3021 10.4284 79.6119 10.8047 80.8109 11.5569Z" fill="black"/>
<path fill-rule="evenodd" clip-rule="evenodd" d="M97.0277 22.919C97.7444 22.4893 98.3076 21.905 98.716 21.1658C99.1245 20.4269 99.3287 19.627 99.3287 18.7668C99.3287 17.9065 99.1245 17.1073 98.716 16.3678C98.3076 15.6294 97.7444 15.0446 97.0277 14.614C96.3101 14.1843 95.5315 13.9693 94.6934 13.9693C93.8544 13.9693 93.0761 14.1843 92.359 14.614C91.6414 15.0446 91.0783 15.6294 90.6704 16.3678C90.262 17.1073 90.058 17.9065 90.058 18.7668C90.058 19.627 90.262 20.4269 90.6704 21.1658C91.0783 21.905 91.6414 22.4893 92.359 22.919C93.0761 23.3495 93.8544 23.5645 94.6934 23.5645C95.5315 23.5645 96.3101 23.3495 97.0277 22.919ZM90.3722 26.1617C89.0593 25.4008 88.016 24.3644 87.2433 23.0515C86.4706 21.7398 86.0849 20.3 86.0849 18.7335C86.0849 17.1897 86.4706 15.7673 87.2433 14.4656C88.016 13.1639 89.0593 12.1326 90.3722 11.3721C91.6854 10.6111 93.1261 10.2303 94.6934 10.2303C96.2606 10.2303 97.7005 10.6111 99.0142 11.3721C100.327 12.1326 101.37 13.1639 102.143 14.4656C102.915 15.7673 103.302 17.1897 103.302 18.7335C103.302 20.3 102.915 21.7398 102.143 23.0515C101.37 24.3644 100.327 25.4008 99.0142 26.1617C97.7005 26.9227 96.2606 27.3035 94.6934 27.3035C93.1261 27.3035 91.6854 26.9227 90.3722 26.1617Z" fill="black"/>
<path fill-rule="evenodd" clip-rule="evenodd" d="M115.622 22.919C116.339 22.4893 116.902 21.905 117.31 21.1658C117.719 20.4269 117.923 19.627 117.923 18.7668C117.923 17.9065 117.719 17.1073 117.31 16.3678C116.902 15.6294 116.339 15.0446 115.622 14.614C114.904 14.1843 114.126 13.9693 113.288 13.9693C112.449 13.9693 111.671 14.1843 110.953 14.614C110.236 15.0446 109.673 15.6294 109.265 16.3678C108.856 17.1073 108.652 17.9065 108.652 18.7668C108.652 19.627 108.856 20.4269 109.265 21.1658C109.673 21.905 110.236 22.4893 110.953 22.919C111.671 23.3495 112.449 23.5645 113.288 23.5645C114.126 23.5645 114.904 23.3495 115.622 22.919ZM108.967 26.1617C107.653 25.4008 106.61 24.3644 105.838 23.0515C105.065 21.7398 104.679 20.3 104.679 18.7335C104.679 17.1897 105.065 15.7673 105.838 14.4656C106.61 13.1639 107.653 12.1326 108.967 11.3721C110.28 10.6111 111.72 10.2303 113.288 10.2303C114.855 10.2303 116.295 10.6111 117.609 11.3721C118.921 12.1326 119.964 13.1639 120.738 14.4656C121.51 15.7673 121.896 17.1897 121.896 18.7335C121.896 20.3 121.51 21.7398 120.738 23.0515C119.964 24.3644 118.921 25.4008 117.609 26.1617C116.295 26.9227 114.855 27.3035 113.288 27.3035C111.72 27.3035 110.28 26.9227 108.967 26.1617Z" fill="black"/>
<path fill-rule="evenodd" clip-rule="evenodd" d="M122.686 26.5206C122.619 26.454 122.585 26.3736 122.585 26.2791C122.585 26.185 122.619 26.1044 122.686 26.0378C122.753 25.9712 122.834 25.9377 122.929 25.9377C123.024 25.9377 123.105 25.9712 123.173 26.0378C123.24 26.1044 123.274 26.185 123.274 26.2791C123.274 26.3736 123.24 26.454 123.173 26.5206C123.105 26.587 123.024 26.6207 122.929 26.6207C122.834 26.6207 122.753 26.587 122.686 26.5206Z" fill="black"/>
<path fill-rule="evenodd" clip-rule="evenodd" d="M136.667 19.5816C137.212 19.8971 137.641 20.3244 137.954 20.8638C138.267 21.4038 138.424 21.994 138.424 22.6352V26.3454C138.424 26.4166 138.398 26.4804 138.347 26.5364C138.296 26.5924 138.229 26.6206 138.147 26.6206C138.075 26.6206 138.013 26.5949 137.962 26.5439C137.91 26.4933 137.885 26.4268 137.885 26.3454V22.7111C137.885 22.1516 137.749 21.6351 137.476 21.1617C137.204 20.6882 136.835 20.3142 136.367 20.0392C135.9 19.7646 135.389 19.6274 134.835 19.6274C134.29 19.6274 133.784 19.7646 133.317 20.0392C132.849 20.3142 132.48 20.6882 132.207 21.1617C131.935 21.6351 131.799 22.1516 131.799 22.7111V26.3454C131.799 26.4166 131.774 26.4804 131.722 26.5364C131.671 26.5924 131.609 26.6206 131.538 26.6206C131.465 26.6206 131.401 26.5924 131.345 26.5364C131.288 26.4804 131.26 26.4166 131.26 26.3454V22.7111C131.26 22.1516 131.124 21.6351 130.852 21.1617C130.58 20.6882 130.213 20.3142 129.75 20.0392C129.288 19.7646 128.78 19.6274 128.225 19.6274C127.671 19.6274 127.162 19.7646 126.7 20.0392C126.238 20.3142 125.871 20.6882 125.598 21.1617C125.326 21.6351 125.19 22.1516 125.19 22.7111V26.3454C125.19 26.4166 125.165 26.4804 125.113 26.5364C125.062 26.5924 124.995 26.6206 124.913 26.6206C124.841 26.6206 124.779 26.5949 124.728 26.5439C124.677 26.4933 124.651 26.4268 124.651 26.3454V19.5203C124.651 19.4388 124.677 19.3751 124.728 19.3295C124.779 19.2837 124.841 19.2608 124.913 19.2608C124.995 19.2608 125.062 19.2862 125.113 19.337C125.165 19.388 125.19 19.4493 125.19 19.5203V21.017C125.477 20.4467 125.901 19.986 126.461 19.6346C127.02 19.2837 127.634 19.1084 128.303 19.1084C129.042 19.1084 129.709 19.3196 130.305 19.7417C130.901 20.164 131.322 20.7112 131.568 21.3831C131.825 20.7112 132.256 20.164 132.863 19.7417C133.468 19.3196 134.146 19.1084 134.896 19.1084C135.533 19.1084 136.123 19.2657 136.667 19.5816Z" fill="black"/>
<mask id="mask1_17_38" style="mask-type:luminance" maskUnits="userSpaceOnUse" x="139" y="19" width="7" height="9">
<path d="M139.221 19.853H145.887V27.0798H139.221V19.853Z" fill="white"/>
</mask>
<g mask="url(#mask1_17_38)">
<path fill-rule="evenodd" clip-rule="evenodd" d="M145.829 26.6494C145.868 26.6891 145.887 26.7439 145.887 26.8128C145.887 26.892 145.857 26.9612 145.799 27.0205C145.76 27.0602 145.706 27.0798 145.638 27.0798C145.559 27.0798 145.491 27.05 145.433 26.991L142.547 23.845L139.661 26.991C139.621 27.05 139.558 27.0798 139.471 27.0798C139.402 27.0798 139.348 27.0602 139.309 27.0205C139.251 26.9612 139.221 26.892 139.221 26.8128C139.221 26.7439 139.241 26.6891 139.28 26.6494L142.21 23.4589L139.28 20.2834C139.241 20.2442 139.221 20.1849 139.221 20.1055C139.221 20.0462 139.245 19.9818 139.295 19.9123C139.343 19.8734 139.402 19.853 139.471 19.853C139.558 19.853 139.621 19.8828 139.661 19.9424L142.547 23.0881L145.448 19.9424C145.497 19.8828 145.559 19.853 145.638 19.853C145.706 19.853 145.765 19.8734 145.814 19.9123C145.863 19.9818 145.887 20.0462 145.887 20.1055C145.887 20.1849 145.868 20.2442 145.829 20.2834L142.898 23.4589L145.829 26.6494Z" fill="black"/>
</g>
<mask id="mask2_17_38" style="mask-type:luminance" maskUnits="userSpaceOnUse" x="0" y="16" width="11" height="12">
<path d="M0 16.48H10.9146V27.3035H0V16.48Z" fill="white"/>
</mask>
<g mask="url(#mask2_17_38)">
<path fill-rule="evenodd" clip-rule="evenodd" d="M6.71667 16.48H4.19792C1.88046 16.48 0 18.345 0 20.6428V23.1408C0 25.4386 1.88046 27.3037 4.19792 27.3037H6.71667C9.03386 27.3037 10.9146 25.4386 10.9146 23.1408V20.6428C10.9146 18.345 9.03386 16.48 6.71667 16.48Z" fill="#3FB549"/>
</g>
<mask id="mask3_17_38" style="mask-type:luminance" maskUnits="userSpaceOnUse" x="13" y="0" width="12" height="28">
<path d="M13.3248 0.00012207H24.6454V27.7093H13.3248V0.00012207Z" fill="white"/>
</mask>
<g mask="url(#mask3_17_38)">
<path fill-rule="evenodd" clip-rule="evenodd" d="M20.2913 0.00012207H17.6788C15.2752 0.00012207 13.3248 2.21683 13.3248 4.94836V6.66246V7.91719V19.7925V21.7107V22.7613C13.3248 25.4929 15.2752 27.7096 17.6788 27.7096H20.2913C22.6947 27.7096 24.6454 25.4929 24.6454 22.7613V21.7107V21.2771V19.7925V7.91719V6.66246V4.94836C24.6454 2.21683 22.6947 0.00012207 20.2913 0.00012207Z" fill="#FF3364"/>
</g>
</svg>
