<svg width="146" height="28" viewBox="0 0 146 28" fill="none" xmlns="http://www.w3.org/2000/svg">
<g clip-path="url(#clip0_6_711)">
<mask id="mask0_6_711" style="mask-type:luminance" maskUnits="userSpaceOnUse" x="0" y="0" width="11" height="15">
<path d="M0.00709534 0.0135498H10.9077V14.251H0.00709534V0.0135498Z" fill="white"/>
</mask>
<g mask="url(#mask0_6_711)">
<path fill-rule="evenodd" clip-rule="evenodd" d="M5.67912 14.0326L5.74846 14.1233C5.73691 14.1079 5.71729 14.0823 5.67912 14.0326ZM5.16608 14.1233L5.23568 14.0326C5.19752 14.0823 5.1779 14.1079 5.16608 14.1233ZM5.4574 0.0135498C2.45973 0.0135498 0.00709534 2.43395 0.00709534 5.44924C0.00709534 7.77807 1.33984 9.96956 2.59841 11.5256C3.2324 12.3188 3.87176 12.9697 4.34745 13.4223C4.5853 13.6509 4.78337 13.8291 4.92232 13.951C4.99649 14.0122 5.05105 14.0577 5.09082 14.0883C5.10561 14.1087 5.12039 14.1187 5.13517 14.1291L5.14511 14.1391H5.15022V14.1443C5.3284 14.2866 5.58614 14.2866 5.76459 14.1443V14.1391H5.76943L5.77937 14.1291C5.79442 14.1187 5.8092 14.1087 5.82398 14.0883C5.86376 14.0577 5.91831 14.0122 5.99249 13.951C6.13117 13.8291 6.32924 13.6509 6.56735 13.4223C7.04278 12.9697 7.68214 12.3188 8.3164 11.5256C9.57497 9.96956 10.9077 7.77807 10.9077 5.44924C10.9077 2.43395 8.45507 0.0135498 5.4574 0.0135498Z" fill="#FFDD17"/>
</g>
<path fill-rule="evenodd" clip-rule="evenodd" d="M43.3712 11.1668C44.4269 11.7823 45.2673 12.6195 45.8928 13.6773C46.5177 14.7354 46.8302 15.891 46.8302 17.1431V24.6904C46.8302 25.2307 46.6412 25.6894 46.2642 26.0665C45.8871 26.445 45.429 26.6341 44.8904 26.6341C44.3515 26.6341 43.8934 26.445 43.5168 26.0665C43.1393 25.6894 42.9509 25.2307 42.9509 24.6904V18.115C42.9509 17.3593 42.7676 16.6573 42.4016 16.0092C42.0348 15.3619 41.5448 14.8487 40.9305 14.4708C40.3165 14.0934 39.6426 13.9042 38.9104 13.9042C38.1773 13.9042 37.5043 14.0934 36.89 14.4708C36.2757 14.8487 35.7854 15.3619 35.4192 16.0092C35.0523 16.6573 34.8699 17.3593 34.8699 18.115V24.6904C34.8699 25.2307 34.6806 25.6894 34.304 26.0665C33.9265 26.445 33.4684 26.6341 32.9301 26.6341C32.3912 26.6341 31.9331 26.445 31.5562 26.0665C31.179 25.6894 30.9906 25.2307 30.9906 24.6904V12.5112C30.9906 11.9714 31.179 11.5127 31.5562 11.1342C31.9331 10.7568 32.3912 10.5677 32.9301 10.5677C33.4474 10.5677 33.8888 10.7406 34.2556 11.086C34.6216 11.4314 34.8262 11.8527 34.8699 12.3489C35.5161 11.6802 36.2703 11.1619 37.1325 10.7943C37.9943 10.4275 38.9104 10.2439 39.8803 10.2439C41.1514 10.2439 42.3153 10.5513 43.3712 11.1668Z" fill="white"/>
<path fill-rule="evenodd" clip-rule="evenodd" d="M59.9025 22.9325C60.6237 22.5028 61.1898 21.9185 61.6007 21.1793C62.0115 20.4404 62.2169 19.6406 62.2169 18.7803C62.2169 17.9201 62.0115 17.1208 61.6007 16.3813C61.1898 15.643 60.6237 15.0581 59.9025 14.6276C59.1808 14.1979 58.3982 13.9829 57.5547 13.9829C56.7105 13.9829 55.928 14.1979 55.2071 14.6276C54.4853 15.0581 53.9192 15.643 53.5084 16.3813C53.0973 17.1208 52.8924 17.9201 52.8924 18.7803C52.8924 19.6406 53.0973 20.4404 53.5084 21.1793C53.9192 21.9185 54.4853 22.5028 55.2071 22.9325C55.928 23.3631 56.7105 23.5781 57.5547 23.5781C58.3982 23.5781 59.1808 23.3631 59.9025 22.9325ZM65.5302 11.1536C65.9188 11.54 66.1132 12.0088 66.1132 12.5599V25.0008C66.1132 25.5527 65.9188 26.0213 65.5302 26.4068C65.1419 26.7934 64.6697 26.9863 64.1151 26.9863C63.5599 26.9863 63.0878 26.7934 62.6997 26.4068C62.3112 26.0213 62.117 25.5527 62.117 25.0008V24.9675C61.4062 25.7176 60.5852 26.2972 59.6527 26.7048C58.7201 27.1124 57.7432 27.3171 56.7223 27.3171C55.3011 27.3171 53.9912 26.9363 52.7925 26.1753C51.5938 25.4143 50.6447 24.3779 49.9452 23.0651C49.2457 21.7533 48.8962 20.3247 48.8962 18.7803C48.8962 17.2365 49.2457 15.8082 49.9452 14.4959C50.6447 13.1836 51.5938 12.1461 52.7925 11.3857C53.9912 10.6247 55.3011 10.2439 56.7223 10.2439C57.7432 10.2439 58.7201 10.4483 59.6527 10.8562C60.5852 11.2643 61.4062 11.8436 62.117 12.5931V12.5599C62.117 12.0088 62.3112 11.54 62.6997 11.1536C63.0878 10.7678 63.5599 10.5746 64.1151 10.5746C64.6697 10.5746 65.1419 10.7678 65.5302 11.1536Z" fill="white"/>
<path fill-rule="evenodd" clip-rule="evenodd" d="M78.3967 22.9835C79.1179 22.5588 79.684 21.9812 80.0951 21.2506C80.5057 20.5203 80.7114 19.7297 80.7114 18.8794C80.7114 18.0291 80.5057 17.2391 80.0951 16.5082C79.684 15.7784 79.1179 15.2003 78.3967 14.7748C77.6752 14.3501 76.8924 14.1376 76.0488 14.1376C75.205 14.1376 74.4224 14.3501 73.7013 14.7748C72.9795 15.2003 72.4134 15.7784 72.0025 16.5082C71.5917 17.2391 71.3866 18.0291 71.3866 18.8794C71.3866 19.7297 71.5917 20.5203 72.0025 21.2506C72.4134 21.9812 72.9795 22.5588 73.7013 22.9835C74.4224 23.409 75.205 23.6215 76.0488 23.6215C76.8924 23.6215 77.6752 23.409 78.3967 22.9835ZM80.811 11.5705C82.0099 12.3221 82.9593 13.3475 83.6583 14.6446C84.3578 15.9417 84.7076 17.3535 84.7076 18.8794C84.7076 20.4059 84.3578 21.8179 83.6583 23.1145C82.9593 24.4121 82.0099 25.4365 80.811 26.1886C79.612 26.9408 78.3021 27.3172 76.8814 27.3172C75.86 27.3172 74.8833 27.1149 73.9508 26.712C73.0186 26.3091 72.1967 25.7363 71.4868 24.9949V25.0278C71.4868 25.5732 71.2921 26.0364 70.9037 26.4174C70.5149 26.7996 70.0433 26.9903 69.4887 26.9903C68.9335 26.9903 68.4613 26.7996 68.0733 26.4174C67.6847 26.0364 67.4906 25.5732 67.4906 25.0278V6.05988C67.4906 5.51496 67.6847 5.05127 68.0733 4.66966C68.4613 4.2886 68.9335 4.09766 69.4887 4.09766C70.0433 4.09766 70.5149 4.2886 70.9037 4.66966C71.2921 5.05127 71.4868 5.51496 71.4868 6.05988V12.7639C72.1967 12.0231 73.0186 11.4505 73.9508 11.0471C74.8833 10.6439 75.86 10.4419 76.8814 10.4419C78.3021 10.4419 79.612 10.8183 80.811 11.5705Z" fill="white"/>
<path fill-rule="evenodd" clip-rule="evenodd" d="M97.0277 22.9325C97.7445 22.5028 98.3076 21.9185 98.7161 21.1793C99.1245 20.4404 99.3287 19.6406 99.3287 18.7803C99.3287 17.9201 99.1245 17.1208 98.7161 16.3813C98.3076 15.643 97.7445 15.0581 97.0277 14.6276C96.3101 14.1979 95.5316 13.9829 94.6934 13.9829C93.8544 13.9829 93.0761 14.1979 92.3591 14.6276C91.6415 15.0581 91.0783 15.643 90.6704 16.3813C90.262 17.1208 90.0581 17.9201 90.0581 18.7803C90.0581 19.6406 90.262 20.4404 90.6704 21.1793C91.0783 21.9185 91.6415 22.5028 92.3591 22.9325C93.0761 23.3631 93.8544 23.5781 94.6934 23.5781C95.5316 23.5781 96.3101 23.3631 97.0277 22.9325ZM90.3722 26.1753C89.0593 25.4143 88.0161 24.3779 87.2434 23.0651C86.4707 21.7533 86.0849 20.3135 86.0849 18.7471C86.0849 17.2033 86.4707 15.7808 87.2434 14.4791C88.0161 13.1774 89.0593 12.1461 90.3722 11.3857C91.6854 10.6247 93.1262 10.2439 94.6934 10.2439C96.2606 10.2439 97.7005 10.6247 99.0143 11.3857C100.327 12.1461 101.37 13.1774 102.143 14.4791C102.916 15.7808 103.302 17.2033 103.302 18.7471C103.302 20.3135 102.916 21.7533 102.143 23.0651C101.37 24.3779 100.327 25.4143 99.0143 26.1753C97.7005 26.9363 96.2606 27.3171 94.6934 27.3171C93.1262 27.3171 91.6854 26.9363 90.3722 26.1753Z" fill="white"/>
<path fill-rule="evenodd" clip-rule="evenodd" d="M115.622 22.9325C116.339 22.5028 116.902 21.9185 117.31 21.1793C117.719 20.4404 117.923 19.6406 117.923 18.7803C117.923 17.9201 117.719 17.1208 117.31 16.3813C116.902 15.643 116.339 15.0581 115.622 14.6276C114.904 14.1979 114.126 13.9829 113.288 13.9829C112.449 13.9829 111.671 14.1979 110.953 14.6276C110.236 15.0581 109.673 15.643 109.265 16.3813C108.856 17.1208 108.652 17.9201 108.652 18.7803C108.652 19.6406 108.856 20.4404 109.265 21.1793C109.673 21.9185 110.236 22.5028 110.953 22.9325C111.671 23.3631 112.449 23.5781 113.288 23.5781C114.126 23.5781 114.904 23.3631 115.622 22.9325ZM108.967 26.1753C107.653 25.4143 106.61 24.3779 105.838 23.0651C105.065 21.7533 104.679 20.3135 104.679 18.7471C104.679 17.2033 105.065 15.7808 105.838 14.4791C106.61 13.1774 107.653 12.1461 108.967 11.3857C110.28 10.6247 111.72 10.2439 113.288 10.2439C114.855 10.2439 116.295 10.6247 117.609 11.3857C118.921 12.1461 119.964 13.1774 120.738 14.4791C121.51 15.7808 121.896 17.2033 121.896 18.7471C121.896 20.3135 121.51 21.7533 120.738 23.0651C119.964 24.3779 118.921 25.4143 117.609 26.1753C116.295 26.9363 114.855 27.3171 113.288 27.3171C111.72 27.3171 110.28 26.9363 108.967 26.1753Z" fill="white"/>
<path fill-rule="evenodd" clip-rule="evenodd" d="M122.686 26.5342C122.619 26.4676 122.585 26.3871 122.585 26.2926C122.585 26.1986 122.619 26.1179 122.686 26.0513C122.753 25.9847 122.834 25.9513 122.929 25.9513C123.024 25.9513 123.105 25.9847 123.173 26.0513C123.24 26.1179 123.274 26.1986 123.274 26.2926C123.274 26.3871 123.24 26.4676 123.173 26.5342C123.105 26.6006 123.024 26.6342 122.929 26.6342C122.834 26.6342 122.753 26.6006 122.686 26.5342Z" fill="#404042"/>
<path fill-rule="evenodd" clip-rule="evenodd" d="M136.667 19.5951C137.212 19.9106 137.641 20.338 137.954 20.8774C138.267 21.4173 138.425 22.0075 138.425 22.6488V26.3589C138.425 26.4301 138.398 26.4939 138.347 26.5499C138.296 26.606 138.229 26.6341 138.147 26.6341C138.075 26.6341 138.013 26.6085 137.962 26.5574C137.91 26.5069 137.885 26.4404 137.885 26.3589V22.7247C137.885 22.1651 137.749 21.6486 137.476 21.1752C137.204 20.7018 136.835 20.3277 136.367 20.0528C135.9 19.7781 135.389 19.6409 134.835 19.6409C134.29 19.6409 133.784 19.7781 133.317 20.0528C132.85 20.3277 132.48 20.7018 132.207 21.1752C131.935 21.6486 131.799 22.1651 131.799 22.7247V26.3589C131.799 26.4301 131.774 26.4939 131.722 26.5499C131.671 26.606 131.609 26.6341 131.538 26.6341C131.465 26.6341 131.401 26.606 131.345 26.5499C131.288 26.4939 131.26 26.4301 131.26 26.3589V22.7247C131.26 22.1651 131.124 21.6486 130.852 21.1752C130.58 20.7018 130.213 20.3277 129.75 20.0528C129.288 19.7781 128.78 19.6409 128.225 19.6409C127.671 19.6409 127.162 19.7781 126.7 20.0528C126.238 20.3277 125.871 20.7018 125.599 21.1752C125.326 21.6486 125.19 22.1651 125.19 22.7247V26.3589C125.19 26.4301 125.165 26.4939 125.113 26.5499C125.062 26.606 124.995 26.6341 124.913 26.6341C124.841 26.6341 124.779 26.6085 124.728 26.5574C124.677 26.5069 124.651 26.4404 124.651 26.3589V19.5338C124.651 19.4524 124.677 19.3886 124.728 19.3431C124.779 19.2972 124.841 19.2743 124.913 19.2743C124.995 19.2743 125.062 19.2997 125.113 19.3505C125.165 19.4016 125.19 19.4629 125.19 19.5338V21.0306C125.477 20.4602 125.901 19.9995 126.461 19.6481C127.02 19.2972 127.634 19.1219 128.303 19.1219C129.042 19.1219 129.709 19.3331 130.305 19.7552C130.901 20.1776 131.322 20.7247 131.568 21.3966C131.825 20.7247 132.256 20.1776 132.863 19.7552C133.468 19.3331 134.146 19.1219 134.896 19.1219C135.533 19.1219 136.123 19.2793 136.667 19.5951Z" fill="white"/>
<mask id="mask1_6_711" style="mask-type:luminance" maskUnits="userSpaceOnUse" x="139" y="19" width="7" height="9">
<path d="M139.221 19.8666H145.887V27.0933H139.221V19.8666Z" fill="white"/>
</mask>
<g mask="url(#mask1_6_711)">
<path fill-rule="evenodd" clip-rule="evenodd" d="M145.829 26.663C145.868 26.7027 145.887 26.7574 145.887 26.8264C145.887 26.9055 145.858 26.9747 145.8 27.034C145.76 27.0737 145.707 27.0933 145.638 27.0933C145.56 27.0933 145.491 27.0635 145.433 27.0045L142.547 23.8585L139.661 27.0045C139.622 27.0635 139.558 27.0933 139.471 27.0933C139.402 27.0933 139.348 27.0737 139.31 27.034C139.251 26.9747 139.221 26.9055 139.221 26.8264C139.221 26.7574 139.241 26.7027 139.28 26.663L142.21 23.4724L139.28 20.2969C139.241 20.2577 139.221 20.1985 139.221 20.119C139.221 20.0597 139.245 19.9954 139.295 19.9259C139.343 19.887 139.402 19.8666 139.471 19.8666C139.558 19.8666 139.622 19.8964 139.661 19.9559L142.547 23.1017L145.448 19.9559C145.497 19.8964 145.56 19.8666 145.638 19.8666C145.707 19.8666 145.765 19.887 145.814 19.9259C145.863 19.9954 145.887 20.0597 145.887 20.119C145.887 20.1985 145.868 20.2577 145.829 20.2969L142.898 23.4724L145.829 26.663Z" fill="white"/>
</g>
<mask id="mask2_6_711" style="mask-type:luminance" maskUnits="userSpaceOnUse" x="0" y="16" width="11" height="12">
<path d="M4.57764e-05 16.4935H10.9146V27.3171H4.57764e-05V16.4935Z" fill="white"/>
</mask>
<g mask="url(#mask2_6_711)">
<path fill-rule="evenodd" clip-rule="evenodd" d="M6.71672 16.4935H4.19797C1.88051 16.4935 4.57764e-05 18.3586 4.57764e-05 20.6564V23.1544C4.57764e-05 25.4522 1.88051 27.3172 4.19797 27.3172H6.71672C9.03391 27.3172 10.9146 25.4522 10.9146 23.1544V20.6564C10.9146 18.3586 9.03391 16.4935 6.71672 16.4935Z" fill="#3FB549"/>
</g>
<mask id="mask3_6_711" style="mask-type:luminance" maskUnits="userSpaceOnUse" x="13" y="0" width="12" height="28">
<path d="M13.3248 0.0136719H24.6454V27.7229H13.3248V0.0136719Z" fill="white"/>
</mask>
<g mask="url(#mask3_6_711)">
<path fill-rule="evenodd" clip-rule="evenodd" d="M20.2913 0.0136719H17.6789C15.2752 0.0136719 13.3248 2.23038 13.3248 4.96191V6.67601V7.93074V19.8061V21.7242V22.7749C13.3248 25.5064 15.2752 27.7231 17.6789 27.7231H20.2913C22.6947 27.7231 24.6454 25.5064 24.6454 22.7749V21.7242V21.2906V19.8061V7.93074V6.67601V4.96191C24.6454 2.23038 22.6947 0.0136719 20.2913 0.0136719Z" fill="#FF3364"/>
</g>
</g>
<defs>
<clipPath id="clip0_6_711">
<rect width="146" height="28" fill="white"/>
</clipPath>
</defs>
</svg>
